<mxfile host="app.diagrams.net" modified="2023-04-20T12:23:54.481Z" agent="Mozilla/5.0 (Macintosh; Intel Mac OS X 10_15_7) AppleWebKit/537.36 (KHTML, like Gecko) Chrome/107.0.0.0 Safari/537.36" version="21.2.1" etag="rhpglaiNjptdidim6KLc" type="github">
  <diagram name="第 1 页" id="qPHduqHA62XYXEPUf7gI">
    <mxGraphModel>
      <root>
        <mxCell id="0" />
        <mxCell id="1" parent="0" />
      </root>
    </mxGraphModel>
  </diagram>
</mxfile>
